<?xml version="1.0" encoding="UTF-8"?>
<svg id="Layer_2" data-name="Layer 2" xmlns="http://www.w3.org/2000/svg" xmlns:xlink="http://www.w3.org/1999/xlink" viewBox="0 0 25.42 674.68">
  <defs>
    <style>
      .cls-1 {
        fill: #cdd0d8;
      }

      .cls-2 {
        fill: url(#radial-gradient-5);
      }

      .cls-3 {
        fill: url(#radial-gradient-4);
      }

      .cls-4 {
        fill: url(#radial-gradient);
      }

      .cls-5 {
        fill: url(#radial-gradient-2);
      }

      .cls-6 {
        fill: url(#radial-gradient-3);
      }
    </style>
    <radialGradient id="radial-gradient" cx="-252.83" cy="48.31" fx="-252.83" fy="48.31" r="12.48" gradientTransform="translate(-35.6 409.41) rotate(-90)" gradientUnits="userSpaceOnUse">
      <stop offset="0" stop-color="#e8c441"/>
      <stop offset="1" stop-color="#e3bb37"/>
    </radialGradient>
    <radialGradient id="radial-gradient-2" cx="-226" fx="-226" r="11.43" xlink:href="#radial-gradient"/>
    <radialGradient id="radial-gradient-3" cx="-199.01" fx="-199.01" r="12.87" xlink:href="#radial-gradient"/>
    <radialGradient id="radial-gradient-4" cx="-170.17" cy="48.4" fx="-170.17" fy="48.4" r="11.4" xlink:href="#radial-gradient"/>
    <radialGradient id="radial-gradient-5" cx="-146.76" fx="-146.76" r="11.31" xlink:href="#radial-gradient"/>
  </defs>
  <g id="Layer_1-2" data-name="Layer 1">
    <rect class="cls-1" x="-253.29" y="265.41" width="532" height="1.17" transform="translate(-253.29 278.71) rotate(-90)"/>
    <g>
      <path class="cls-4" d="m25.24,674.68L.18,663.15v-1.83l25.06-11.53v1.97l-23.91,10.88v-.79l23.91,10.85v1.97Zm-7.05-4.22l-1.54-.61v-15l1.54-.61v16.22Z"/>
      <path class="cls-5" d="m25.24,645.61H.18v-10.45c0-2.7.55-4.81,1.65-6.34,1.1-1.53,2.68-2.29,4.76-2.29,1.36,0,2.51.32,3.44.97.93.64,1.63,1.53,2.09,2.67.47,1.13.7,2.4.7,3.81l-.72-.64c0-1.72.25-3.19.75-4.4.5-1.22,1.23-2.14,2.18-2.77.96-.63,2.15-.95,3.58-.95,2.1,0,3.73.76,4.89,2.29,1.16,1.53,1.74,3.84,1.74,6.94v11.17Zm-1.58-1.83v-9.34c0-2.41-.41-4.25-1.24-5.51-.82-1.26-2.14-1.9-3.96-1.9s-3.1.63-3.92,1.9c-.82,1.27-1.24,3.1-1.24,5.51v9.56h-1.58v-8.77c0-2.17-.42-3.85-1.25-5.05-.83-1.19-2.09-1.79-3.76-1.79s-2.89.6-3.72,1.79c-.83,1.19-1.25,2.88-1.25,5.05v8.56h21.91Z"/>
      <path class="cls-6" d="m25.42,608.42c0,1.86-.32,3.59-.95,5.17-.63,1.59-1.53,2.97-2.68,4.15s-2.51,2.09-4.05,2.74c-1.54.64-3.21.97-5.03.97s-3.49-.32-5.03-.97c-1.54-.64-2.89-1.56-4.04-2.74s-2.05-2.56-2.69-4.15c-.63-1.59-.95-3.31-.95-5.17s.32-3.59.95-5.17c.63-1.59,1.52-2.96,2.67-4.13,1.15-1.17,2.49-2.08,4.03-2.74,1.54-.66,3.23-.98,5.07-.98s3.53.33,5.07.98c1.54.66,2.88,1.57,4.03,2.74,1.15,1.17,2.04,2.55,2.67,4.13.63,1.59.95,3.31.95,5.17Zm-1.68,0c0-1.6-.27-3.08-.82-4.44-.55-1.36-1.32-2.54-2.33-3.54-1-1-2.17-1.78-3.51-2.34-1.34-.56-2.79-.84-4.37-.84s-3.06.28-4.38.84c-1.33.56-2.49,1.34-3.49,2.34-1,1-1.78,2.18-2.33,3.54-.55,1.36-.82,2.84-.82,4.44s.27,3.08.82,4.44c.55,1.36,1.32,2.55,2.33,3.56,1,1.01,2.17,1.8,3.49,2.36,1.32.56,2.79.84,4.38.84s3.03-.28,4.37-.84c1.34-.56,2.51-1.35,3.51-2.36,1-1.01,1.78-2.2,2.33-3.56.55-1.36.82-2.84.82-4.44Z"/>
      <path class="cls-3" d="m25.42,579.6c0,3.1-.91,5.55-2.72,7.34-1.81,1.79-4.51,2.69-8.09,2.69H.18v-1.83h14.36c3.13,0,5.44-.72,6.94-2.15,1.5-1.43,2.25-3.46,2.25-6.09s-.75-4.62-2.25-6.05c-1.5-1.43-3.82-2.15-6.94-2.15H.18v-1.83h14.43c3.58,0,6.28.9,8.09,2.68,1.81,1.79,2.72,4.25,2.72,7.37Z"/>
      <path class="cls-2" d="m25.24,557.08H1.83v9.02H.18v-19.87h1.65v9.02h23.41v1.83Z"/>
    </g>
  </g>
</svg>