<?xml version="1.0" encoding="UTF-8"?>
<svg id="Layer_2" data-name="Layer 2" xmlns="http://www.w3.org/2000/svg" xmlns:xlink="http://www.w3.org/1999/xlink" viewBox="0 0 25.42 887.35">
  <defs>
    <style>
      .cls-1 {
        fill: url(#radial-gradient-7);
      }

      .cls-2 {
        fill: url(#radial-gradient-10);
      }

      .cls-3 {
        fill: #cdd0d8;
      }

      .cls-4 {
        fill: url(#radial-gradient-8);
      }

      .cls-5 {
        fill: url(#radial-gradient-5);
      }

      .cls-6 {
        fill: url(#radial-gradient-4);
      }

      .cls-7 {
        fill: url(#radial-gradient-6);
      }

      .cls-8 {
        fill: url(#radial-gradient-12);
      }

      .cls-9 {
        fill: url(#radial-gradient);
      }

      .cls-10 {
        fill: url(#radial-gradient-13);
      }

      .cls-11 {
        fill: url(#radial-gradient-2);
      }

      .cls-12 {
        fill: url(#radial-gradient-3);
      }

      .cls-13 {
        fill: url(#radial-gradient-14);
      }

      .cls-14 {
        fill: url(#radial-gradient-11);
      }

      .cls-15 {
        fill: url(#radial-gradient-9);
      }
    </style>
    <radialGradient id="radial-gradient" cx="-604.76" cy="611.43" fx="-604.76" fy="611.43" r="11.86" gradientTransform="translate(-598.72 271.63) rotate(-90)" gradientUnits="userSpaceOnUse">
      <stop offset="0" stop-color="#e8c441"/>
      <stop offset="1" stop-color="#e3bb37"/>
    </radialGradient>
    <radialGradient id="radial-gradient-2" cx="-577.95" fx="-577.95" r="12.87" xlink:href="#radial-gradient"/>
    <radialGradient id="radial-gradient-3" cx="-550.82" fx="-550.82" r="10.56" xlink:href="#radial-gradient"/>
    <radialGradient id="radial-gradient-4" cx="-530.24" fx="-530.24" r="10.56" xlink:href="#radial-gradient"/>
    <radialGradient id="radial-gradient-5" cx="-509.53" fx="-509.53" r="12.48" xlink:href="#radial-gradient"/>
    <radialGradient id="radial-gradient-6" cx="-482.7" fx="-482.7" r="11.43" xlink:href="#radial-gradient"/>
    <radialGradient id="radial-gradient-7" cx="-455.71" fx="-455.71" r="12.87" xlink:href="#radial-gradient"/>
    <radialGradient id="radial-gradient-8" cx="-428.8" fx="-428.8" r="12.48" xlink:href="#radial-gradient"/>
    <radialGradient id="radial-gradient-9" cx="-402.44" fx="-402.44" r="11.22" xlink:href="#radial-gradient"/>
    <radialGradient id="radial-gradient-10" cx="-378.51" fx="-378.51" r="12.48" xlink:href="#radial-gradient"/>
    <radialGradient id="radial-gradient-11" cx="-357.42" fx="-357.42" r="11.31" xlink:href="#radial-gradient"/>
    <radialGradient id="radial-gradient-12" cx="-342.43" fx="-342.43" r="8.88" xlink:href="#radial-gradient"/>
    <radialGradient id="radial-gradient-13" cx="-322.5" fx="-322.5" r="12.87" xlink:href="#radial-gradient"/>
    <radialGradient id="radial-gradient-14" cx="-293.29" fx="-293.29" r="11.43" xlink:href="#radial-gradient"/>
  </defs>
  <g id="Layer_1-2" data-name="Layer 1">
    <rect class="cls-3" x="-253.29" y="265.41" width="532" height="1.17" transform="translate(-253.29 278.71) rotate(-90)"/>
    <g>
      <path class="cls-9" d="m25.42,874.35c0,1.86-.32,3.59-.95,5.17-.63,1.59-1.52,2.97-2.67,4.13s-2.49,2.08-4.03,2.72c-1.54.64-3.23.97-5.07.97s-3.53-.32-5.07-.97c-1.54-.64-2.88-1.56-4.03-2.74s-2.03-2.56-2.67-4.13c-.63-1.58-.95-3.29-.95-5.15,0-1.77.29-3.42.86-4.96.57-1.54,1.44-2.86,2.61-3.96l1.18,1.15c-1.05,1.07-1.81,2.26-2.27,3.56-.47,1.3-.7,2.68-.7,4.13,0,1.6.27,3.08.82,4.46.55,1.37,1.32,2.57,2.33,3.58,1,1.01,2.17,1.8,3.51,2.36,1.34.56,2.79.84,4.37.84s3.03-.28,4.37-.84c1.34-.56,2.51-1.35,3.51-2.36,1-1.01,1.78-2.21,2.33-3.58.55-1.37.82-2.86.82-4.46,0-1.46-.23-2.83-.7-4.13-.47-1.3-1.24-2.49-2.31-3.56l1.18-1.15c1.17,1.1,2.05,2.42,2.63,3.96.58,1.54.88,3.19.88,4.96Z"/>
      <path class="cls-11" d="m25.42,849.58c0,1.86-.32,3.59-.95,5.17-.63,1.59-1.53,2.97-2.68,4.15s-2.51,2.09-4.05,2.74c-1.54.64-3.21.97-5.03.97s-3.49-.32-5.03-.97c-1.54-.64-2.89-1.56-4.04-2.74s-2.05-2.56-2.69-4.15c-.63-1.59-.95-3.31-.95-5.17s.32-3.59.95-5.17c.63-1.59,1.52-2.96,2.67-4.13,1.15-1.17,2.49-2.08,4.03-2.74,1.54-.66,3.23-.98,5.07-.98s3.53.33,5.07.98c1.54.66,2.88,1.57,4.03,2.74,1.15,1.17,2.04,2.55,2.67,4.13.63,1.59.95,3.31.95,5.17Zm-1.68,0c0-1.6-.27-3.08-.82-4.44-.55-1.36-1.32-2.54-2.33-3.54-1-1-2.17-1.78-3.51-2.34-1.34-.56-2.79-.84-4.37-.84s-3.06.28-4.38.84c-1.33.56-2.49,1.34-3.49,2.34-1,1-1.78,2.18-2.33,3.54-.55,1.36-.82,2.84-.82,4.44s.27,3.08.82,4.44c.55,1.36,1.32,2.55,2.33,3.56,1,1.01,2.17,1.8,3.49,2.36,1.32.56,2.79.84,4.38.84s3.03-.28,4.37-.84c1.34-.56,2.51-1.35,3.51-2.36,1-1.01,1.78-2.2,2.33-3.56.55-1.36.82-2.84.82-4.44Z"/>
      <path class="cls-12" d="m25.24,830.57H.18v-1.83h23.41v-14.43h1.65v16.25Z"/>
      <path class="cls-6" d="m25.24,809.99H.18v-1.83h23.41v-14.43h1.65v16.25Z"/>
      <path class="cls-5" d="m25.24,793.59L.18,782.07v-1.83l25.06-11.53v1.97l-23.91,10.88v-.79l23.91,10.85v1.97Zm-7.05-4.22l-1.54-.61v-15l1.54-.61v16.22Z"/>
      <path class="cls-7" d="m25.24,764.53H.18v-10.45c0-2.7.55-4.81,1.65-6.34,1.1-1.53,2.68-2.29,4.76-2.29,1.36,0,2.51.32,3.44.97.93.64,1.63,1.53,2.09,2.67.47,1.13.7,2.4.7,3.81l-.72-.64c0-1.72.25-3.19.75-4.4.5-1.22,1.23-2.14,2.18-2.77.96-.63,2.15-.95,3.58-.95,2.1,0,3.73.76,4.89,2.29,1.16,1.53,1.74,3.84,1.74,6.94v11.17Zm-1.58-1.83v-9.34c0-2.41-.41-4.25-1.24-5.51-.82-1.26-2.14-1.9-3.95-1.9s-3.1.63-3.92,1.9c-.82,1.27-1.24,3.1-1.24,5.51v9.56h-1.58v-8.77c0-2.17-.42-3.85-1.25-5.05-.83-1.19-2.09-1.79-3.76-1.79s-2.89.6-3.72,1.79c-.83,1.19-1.25,2.88-1.25,5.05v8.56h21.91Z"/>
      <path class="cls-1" d="m25.42,727.33c0,1.86-.32,3.59-.95,5.17-.63,1.59-1.53,2.97-2.68,4.15s-2.51,2.09-4.05,2.74c-1.54.64-3.21.97-5.03.97s-3.49-.32-5.03-.97c-1.54-.64-2.89-1.56-4.04-2.74s-2.05-2.56-2.69-4.15c-.63-1.59-.95-3.31-.95-5.17s.32-3.59.95-5.17c.63-1.59,1.52-2.96,2.67-4.13,1.15-1.17,2.49-2.08,4.03-2.74,1.54-.66,3.23-.98,5.07-.98s3.53.33,5.07.98c1.54.66,2.88,1.57,4.03,2.74,1.15,1.17,2.04,2.55,2.67,4.13.63,1.59.95,3.31.95,5.17Zm-1.68,0c0-1.6-.27-3.08-.82-4.44-.55-1.36-1.32-2.54-2.33-3.54-1-1-2.17-1.78-3.51-2.34-1.34-.56-2.79-.84-4.37-.84s-3.06.28-4.38.84c-1.33.56-2.49,1.34-3.49,2.34-1,1-1.78,2.18-2.33,3.54-.55,1.36-.82,2.84-.82,4.44s.27,3.08.82,4.44c.55,1.36,1.32,2.55,2.33,3.56,1,1.01,2.17,1.8,3.49,2.36,1.32.56,2.79.84,4.38.84s3.03-.28,4.37-.84c1.34-.56,2.51-1.35,3.51-2.36,1-1.01,1.78-2.2,2.33-3.56.55-1.36.82-2.84.82-4.44Z"/>
      <path class="cls-4" d="m25.24,712.87L.18,701.34v-1.83l25.06-11.53v1.97l-23.91,10.88v-.79l23.91,10.85v1.97Zm-7.05-4.22l-1.54-.61v-15l1.54-.61v16.22Z"/>
      <path class="cls-15" d="m25.24,683.8H.18v-8.99c0-2.1.33-3.9,1-5.41s1.63-2.66,2.88-3.47c1.25-.81,2.77-1.22,4.56-1.22s3.24.41,4.49,1.22c1.25.81,2.22,1.97,2.9,3.47.68,1.5,1.02,3.31,1.02,5.41v7.98l-.86-.82h9.06v1.83Zm-8.95-1.83l-.86.82v-7.98c0-2.7-.6-4.74-1.79-6.14-1.19-1.4-2.86-2.09-5.01-2.09s-3.85.7-5.03,2.09-1.77,3.44-1.77,6.14v7.98l-.9-.82h15.36Zm8.95-15.57l-9.09,6.52v-2.08l9.09-6.52v2.08Z"/>
      <path class="cls-2" d="m25.24,662.58L.18,651.05v-1.83l25.06-11.53v1.97l-23.91,10.88v-.79l23.91,10.85v1.97Zm-7.05-4.22l-1.54-.61v-15l1.54-.61v16.22Z"/>
      <path class="cls-14" d="m25.24,629.96H1.83v9.02H.18v-19.87h1.65v9.02h23.41v1.83Z"/>
      <path class="cls-8" d="m25.24,614.97H.18v-1.83h25.06v1.83Z"/>
      <path class="cls-10" d="m25.42,594.13c0,1.86-.32,3.59-.95,5.17-.63,1.59-1.53,2.97-2.68,4.15s-2.51,2.09-4.05,2.74c-1.54.64-3.21.97-5.03.97s-3.49-.32-5.03-.97c-1.54-.64-2.89-1.56-4.04-2.74s-2.05-2.56-2.69-4.15c-.63-1.59-.95-3.31-.95-5.17s.32-3.59.95-5.17c.63-1.59,1.52-2.96,2.67-4.13,1.15-1.17,2.49-2.08,4.03-2.74,1.54-.66,3.23-.98,5.07-.98s3.53.33,5.07.98c1.54.66,2.88,1.57,4.03,2.74,1.15,1.17,2.04,2.55,2.67,4.13.63,1.59.95,3.31.95,5.17Zm-1.68,0c0-1.6-.27-3.08-.82-4.44-.55-1.36-1.32-2.54-2.33-3.54-1-1-2.17-1.78-3.51-2.34-1.34-.56-2.79-.84-4.37-.84s-3.06.28-4.38.84c-1.33.56-2.49,1.34-3.49,2.34-1,1-1.78,2.18-2.33,3.54-.55,1.36-.82,2.84-.82,4.44s.27,3.08.82,4.44c.55,1.36,1.32,2.55,2.33,3.56,1,1.01,2.17,1.8,3.49,2.36,1.32.56,2.79.84,4.38.84s3.03-.28,4.37-.84c1.34-.56,2.51-1.35,3.51-2.36,1-1.01,1.78-2.2,2.33-3.56.55-1.36.82-2.84.82-4.44Z"/>
      <path class="cls-13" d="m25.24,575.12H.18v-1.54l22.8-17.86v.82H.18v-1.83h25.06v1.5l-22.8,17.9v-.82h22.8v1.83Z"/>
    </g>
  </g>
</svg>