<?xml version="1.0" encoding="UTF-8"?>
<svg id="Layer_2" data-name="Layer 2" xmlns="http://www.w3.org/2000/svg" xmlns:xlink="http://www.w3.org/1999/xlink" viewBox="0 0 25.42 665.22">
  <defs>
    <style>
      .cls-1 {
        fill: #cdd0d8;
      }

      .cls-2 {
        fill: url(#radial-gradient-5);
      }

      .cls-3 {
        fill: url(#radial-gradient-4);
      }

      .cls-4 {
        fill: url(#radial-gradient);
      }

      .cls-5 {
        fill: url(#radial-gradient-2);
      }

      .cls-6 {
        fill: url(#radial-gradient-3);
      }
    </style>
    <radialGradient id="radial-gradient" cx="-436.31" cy="222.63" fx="-436.31" fy="222.63" r="12.64" gradientTransform="translate(-209.93 216.17) rotate(-90)" gradientUnits="userSpaceOnUse">
      <stop offset="0" stop-color="#e8c441"/>
      <stop offset="1" stop-color="#e3bb37"/>
    </radialGradient>
    <radialGradient id="radial-gradient-2" cx="-405.36" cy="222.72" fx="-405.36" fy="222.72" r="11.4" xlink:href="#radial-gradient"/>
    <radialGradient id="radial-gradient-3" cx="-380.62" fx="-380.62" r="11.04" xlink:href="#radial-gradient"/>
    <radialGradient id="radial-gradient-4" cx="-364.8" fx="-364.8" r="8.88" xlink:href="#radial-gradient"/>
    <radialGradient id="radial-gradient-5" cx="-346.96" fx="-346.96" r="11.86" xlink:href="#radial-gradient"/>
  </defs>
  <g id="Layer_1-2" data-name="Layer 1">
    <rect class="cls-1" x="-253.29" y="265.41" width="532" height="1.17" transform="translate(-253.29 278.71) rotate(-90)"/>
    <g>
      <path class="cls-4" d="m25.24,665.22H.18v-1.54l20.08-11.63v.82L.18,641.27v-1.5l25.06-.04v1.79l-22.3.04v-.5l18.97,10.99v.89l-18.97,11.03v-.54h22.3v1.79Z"/>
      <path class="cls-5" d="m25.42,621.55c0,3.1-.91,5.55-2.72,7.34-1.81,1.79-4.51,2.69-8.09,2.69H.18v-1.83h14.36c3.13,0,5.44-.72,6.94-2.15,1.5-1.43,2.25-3.46,2.25-6.09s-.75-4.62-2.25-6.05c-1.5-1.43-3.82-2.15-6.94-2.15H.18v-1.83h14.43c3.58,0,6.28.9,8.09,2.68,1.81,1.79,2.72,4.25,2.72,7.37Z"/>
      <path class="cls-6" d="m25.42,596.74c0,1.86-.32,3.62-.95,5.28-.63,1.66-1.45,2.94-2.45,3.85l-1.36-.82c.88-.86,1.63-2.03,2.24-3.53.61-1.49.91-3.07.91-4.74s-.22-3.04-.66-4.1c-.44-1.06-1.03-1.85-1.77-2.36-.74-.51-1.56-.77-2.47-.77-1.07,0-1.93.29-2.58.86-.64.57-1.16,1.32-1.54,2.25-.38.93-.7,1.95-.97,3.04-.26,1.1-.54,2.21-.84,3.33-.3,1.12-.69,2.15-1.16,3.08s-1.13,1.68-1.95,2.24c-.82.56-1.89.84-3.2.84-1.19,0-2.29-.31-3.29-.93-1-.62-1.81-1.59-2.43-2.9-.62-1.31-.93-3-.93-5.05,0-1.38.2-2.75.61-4.1.41-1.35.96-2.5,1.65-3.45l1.47.68c-.72,1.05-1.25,2.18-1.59,3.38-.35,1.21-.52,2.37-.52,3.49,0,1.6.23,2.92.68,3.97.45,1.05,1.06,1.83,1.81,2.33.75.5,1.59.75,2.52.75,1.07,0,1.93-.28,2.58-.84.64-.56,1.16-1.31,1.54-2.24s.7-1.96.97-3.08c.26-1.12.54-2.23.84-3.33.3-1.1.69-2.11,1.16-3.04.48-.93,1.12-1.68,1.93-2.25.81-.57,1.86-.86,3.15-.86,1.17,0,2.26.32,3.28.97,1.01.64,1.83,1.63,2.43,2.95.61,1.32.91,3.02.91,5.1Z"/>
      <path class="cls-3" d="m25.24,581.88H.18v-1.83h25.06v1.83Z"/>
      <path class="cls-2" d="m25.42,561.09c0,1.86-.32,3.59-.95,5.17-.63,1.59-1.52,2.97-2.67,4.13s-2.49,2.08-4.03,2.72c-1.54.64-3.23.97-5.07.97s-3.53-.32-5.07-.97c-1.54-.64-2.88-1.56-4.03-2.74s-2.03-2.56-2.67-4.13c-.63-1.58-.95-3.29-.95-5.15,0-1.77.29-3.42.86-4.96.57-1.54,1.44-2.86,2.61-3.96l1.18,1.15c-1.05,1.07-1.81,2.26-2.27,3.56-.47,1.3-.7,2.68-.7,4.13,0,1.6.27,3.08.82,4.46.55,1.37,1.32,2.57,2.33,3.58,1,1.01,2.17,1.8,3.51,2.36,1.34.56,2.79.84,4.37.84s3.03-.28,4.37-.84c1.34-.56,2.51-1.35,3.51-2.36,1-1.01,1.78-2.21,2.33-3.58.55-1.37.82-2.86.82-4.46,0-1.46-.23-2.83-.7-4.13-.47-1.3-1.24-2.49-2.31-3.56l1.18-1.15c1.17,1.1,2.05,2.42,2.63,3.96.58,1.54.88,3.19.88,4.96Z"/>
    </g>
  </g>
</svg>