<?xml version="1.0" encoding="UTF-8"?>
<svg id="Layer_2" data-name="Layer 2" xmlns="http://www.w3.org/2000/svg" xmlns:xlink="http://www.w3.org/1999/xlink" viewBox="0 0 25.42 817.35">
  <defs>
    <style>
      .cls-1 {
        fill: url(#radial-gradient-7);
      }

      .cls-2 {
        fill: url(#radial-gradient-10);
      }

      .cls-3 {
        fill: #cdd0d8;
      }

      .cls-4 {
        fill: url(#radial-gradient-8);
      }

      .cls-5 {
        fill: url(#radial-gradient-5);
      }

      .cls-6 {
        fill: url(#radial-gradient-4);
      }

      .cls-7 {
        fill: url(#radial-gradient-6);
      }

      .cls-8 {
        fill: url(#radial-gradient-12);
      }

      .cls-9 {
        fill: url(#radial-gradient);
      }

      .cls-10 {
        fill: url(#radial-gradient-2);
      }

      .cls-11 {
        fill: url(#radial-gradient-3);
      }

      .cls-12 {
        fill: url(#radial-gradient-11);
      }

      .cls-13 {
        fill: url(#radial-gradient-9);
      }
    </style>
    <radialGradient id="radial-gradient" cx="-360.12" cy="295.76" fx="-360.12" fy="295.76" r="11.31" gradientTransform="translate(-283.05 447.29) rotate(-90)" gradientUnits="userSpaceOnUse">
      <stop offset="0" stop-color="#e8c441"/>
      <stop offset="1" stop-color="#e3bb37"/>
    </radialGradient>
    <radialGradient id="radial-gradient-2" cx="-337.39" fx="-337.39" r="10.76" xlink:href="#radial-gradient"/>
    <radialGradient id="radial-gradient-3" cx="-315.91" fx="-315.91" r="11.04" xlink:href="#radial-gradient"/>
    <radialGradient id="radial-gradient-4" cx="-295.65" fx="-295.65" xlink:href="#radial-gradient"/>
    <radialGradient id="radial-gradient-5" cx="-280.65" fx="-280.65" r="8.88" xlink:href="#radial-gradient"/>
    <radialGradient id="radial-gradient-6" cx="-258.62" fx="-258.62" r="12.64" xlink:href="#radial-gradient"/>
    <radialGradient id="radial-gradient-7" cx="-226.86" fx="-226.86" r="12.87" xlink:href="#radial-gradient"/>
    <radialGradient id="radial-gradient-8" cx="-197.65" fx="-197.65" r="11.43" xlink:href="#radial-gradient"/>
    <radialGradient id="radial-gradient-9" cx="-178.16" fx="-178.16" r="8.88" xlink:href="#radial-gradient"/>
    <radialGradient id="radial-gradient-10" cx="-160.62" fx="-160.62" r="12.48" xlink:href="#radial-gradient"/>
    <radialGradient id="radial-gradient-11" cx="-135.87" fx="-135.87" r="10.56" xlink:href="#radial-gradient"/>
    <radialGradient id="radial-gradient-12" cx="-117.2" fx="-117.2" r="11.04" xlink:href="#radial-gradient"/>
  </defs>
  <g id="Layer_1-2" data-name="Layer 1">
    <rect class="cls-3" x="-253.29" y="265.41" width="532" height="1.17" transform="translate(-253.29 278.71) rotate(-90)"/>
    <g>
      <path class="cls-9" d="m25.24,808.32H1.83v9.02H.18v-19.87h1.65v9.02h23.41v1.83Z"/>
      <path class="cls-10" d="m23.59,791.5v-15.46h1.65v17.29H.18v-16.75h1.65v14.93h21.76Zm-11.88.21v-13.57h1.61v13.57h-1.61Z"/>
      <path class="cls-11" d="m25.42,763.15c0,1.86-.32,3.62-.95,5.28-.63,1.66-1.45,2.94-2.45,3.85l-1.36-.82c.88-.86,1.63-2.03,2.24-3.53.61-1.49.91-3.07.91-4.74s-.22-3.04-.66-4.1c-.44-1.06-1.03-1.85-1.77-2.36-.74-.51-1.56-.77-2.47-.77-1.07,0-1.93.29-2.58.86-.64.57-1.16,1.32-1.54,2.25-.38.93-.7,1.95-.97,3.04-.26,1.1-.54,2.21-.84,3.33-.3,1.12-.69,2.15-1.16,3.08s-1.13,1.68-1.95,2.24c-.82.56-1.89.84-3.2.84-1.19,0-2.29-.31-3.29-.93-1-.62-1.81-1.59-2.43-2.9-.62-1.31-.93-3-.93-5.05,0-1.38.2-2.75.61-4.1.41-1.35.96-2.5,1.65-3.45l1.47.68c-.72,1.05-1.25,2.18-1.59,3.38-.35,1.21-.52,2.37-.52,3.49,0,1.6.23,2.92.68,3.97.45,1.05,1.06,1.83,1.81,2.33.75.5,1.59.75,2.52.75,1.07,0,1.93-.28,2.58-.84.64-.56,1.16-1.31,1.54-2.24s.7-1.96.97-3.08c.26-1.12.54-2.23.84-3.33.3-1.1.69-2.11,1.16-3.04.48-.93,1.12-1.68,1.93-2.25.81-.57,1.86-.86,3.15-.86,1.17,0,2.26.32,3.28.97,1.01.64,1.83,1.63,2.43,2.95.61,1.32.91,3.02.91,5.1Z"/>
      <path class="cls-6" d="m25.24,743.85H1.83v9.02H.18v-19.87h1.65v9.02h23.41v1.83Z"/>
      <path class="cls-5" d="m25.24,728.86H.18v-1.83h25.06v1.83Z"/>
      <path class="cls-7" d="m25.24,718.65H.18v-1.54l20.08-11.63v.82L.18,694.7v-1.5l25.06-.04v1.79l-22.3.04v-.5l18.97,10.99v.89l-18.97,11.03v-.54h22.3v1.79Z"/>
      <path class="cls-1" d="m25.42,674.16c0,1.86-.32,3.59-.95,5.17-.63,1.59-1.53,2.97-2.68,4.15s-2.51,2.09-4.05,2.74c-1.54.64-3.21.97-5.03.97s-3.49-.32-5.03-.97c-1.54-.64-2.89-1.56-4.04-2.74s-2.05-2.56-2.69-4.15c-.63-1.59-.95-3.31-.95-5.17s.32-3.59.95-5.17c.63-1.59,1.52-2.96,2.67-4.13,1.15-1.17,2.49-2.08,4.03-2.74,1.54-.66,3.23-.98,5.07-.98s3.53.33,5.07.98c1.54.66,2.88,1.57,4.03,2.74,1.15,1.17,2.04,2.55,2.67,4.13.63,1.59.95,3.31.95,5.17Zm-1.68,0c0-1.6-.27-3.08-.82-4.44-.55-1.36-1.32-2.54-2.33-3.54-1-1-2.17-1.78-3.51-2.34-1.34-.56-2.79-.84-4.37-.84s-3.06.28-4.38.84c-1.33.56-2.49,1.34-3.49,2.34-1,1-1.78,2.18-2.33,3.54-.55,1.36-.82,2.84-.82,4.44s.27,3.08.82,4.44c.55,1.36,1.32,2.55,2.33,3.56,1,1.01,2.17,1.8,3.49,2.36,1.32.56,2.79.84,4.38.84s3.03-.28,4.37-.84c1.34-.56,2.51-1.35,3.51-2.36,1-1.01,1.78-2.2,2.33-3.56.55-1.36.82-2.84.82-4.44Z"/>
      <path class="cls-4" d="m25.24,655.15H.18v-1.54l22.8-17.86v.82H.18v-1.83h25.06v1.5l-22.8,17.9v-.82h22.8v1.83Z"/>
      <path class="cls-13" d="m25.24,626.37H.18v-1.83h25.06v1.83Z"/>
      <path class="cls-2" d="m25.24,620.35L.18,608.83v-1.83l25.06-11.53v1.97l-23.91,10.88v-.79l23.91,10.85v1.97Zm-7.05-4.22l-1.54-.61v-15l1.54-.61v16.22Z"/>
      <path class="cls-12" d="m25.24,591.29H.18v-1.83h23.41v-14.43h1.65v16.25Z"/>
      <path class="cls-8" d="m25.42,564.44c0,1.86-.32,3.62-.95,5.28-.63,1.66-1.45,2.94-2.45,3.85l-1.36-.82c.88-.86,1.63-2.03,2.24-3.53.61-1.49.91-3.07.91-4.74s-.22-3.04-.66-4.1c-.44-1.06-1.03-1.85-1.77-2.36-.74-.51-1.56-.77-2.47-.77-1.07,0-1.93.29-2.58.86-.64.57-1.16,1.32-1.54,2.25-.38.93-.7,1.95-.97,3.04-.26,1.1-.54,2.21-.84,3.33-.3,1.12-.69,2.15-1.16,3.08s-1.13,1.68-1.95,2.24c-.82.56-1.89.84-3.2.84-1.19,0-2.29-.31-3.29-.93-1-.62-1.81-1.59-2.43-2.9-.62-1.31-.93-3-.93-5.05,0-1.38.2-2.75.61-4.1.41-1.35.96-2.5,1.65-3.45l1.47.68c-.72,1.05-1.25,2.18-1.59,3.38-.35,1.21-.52,2.37-.52,3.49,0,1.6.23,2.92.68,3.97.45,1.05,1.06,1.83,1.81,2.33.75.5,1.59.75,2.52.75,1.07,0,1.93-.28,2.58-.84.64-.56,1.16-1.31,1.54-2.24s.7-1.96.97-3.08c.26-1.12.54-2.23.84-3.33.3-1.1.69-2.11,1.16-3.04.48-.93,1.12-1.68,1.93-2.25.81-.57,1.86-.86,3.15-.86,1.17,0,2.26.32,3.28.97,1.01.64,1.83,1.63,2.43,2.95.61,1.32.91,3.02.91,5.1Z"/>
    </g>
  </g>
</svg>