<?xml version="1.0" encoding="UTF-8"?>
<svg id="Layer_2" data-name="Layer 2" xmlns="http://www.w3.org/2000/svg" xmlns:xlink="http://www.w3.org/1999/xlink" viewBox="0 0 172.11 172.13">
  <defs>
    <style>
      .cls-1 {
        fill: url(#linear-gradient-2);
      }

      .cls-2 {
        fill: url(#linear-gradient-3);
      }

      .cls-3 {
        fill: url(#linear-gradient);
      }
    </style>
    <linearGradient id="linear-gradient" x1="14.25" y1="157.9" x2="157.93" y2="14.22" gradientUnits="userSpaceOnUse">
      <stop offset="0" stop-color="#f9b860"/>
      <stop offset=".52" stop-color="#e34d64"/>
      <stop offset="1" stop-color="#505cd4"/>
    </linearGradient>
    <linearGradient id="linear-gradient-2" x1="42.08" y1="130.04" x2="130.12" y2="42" xlink:href="#linear-gradient"/>
    <linearGradient id="linear-gradient-3" x1="71.22" y1="100.91" x2="100.95" y2="71.17" xlink:href="#linear-gradient"/>
  </defs>
  <g id="Layer_1-2" data-name="Layer 1">
    <g>
      <path class="cls-3" d="m86.04,172.12c-12.45,0-24.9,0-37.35,0-22.87,0-42.53-15.75-47.53-38.08C.4,130.65.01,127.21,0,123.73c0-25.15-.02-50.29,0-75.44C.03,26.53,14.97,7.19,35.99,1.62,40,.56,44.07,0,48.22.01,73.41.03,98.6.09,123.79,0c22.07-.08,42.37,15.58,47.27,38.2.64,2.97,1.05,5.96,1.05,9,0,25.98.03,51.96-.03,77.94-.02,7.72-2.11,14.97-5.88,21.69-6.82,12.18-17.01,20.11-30.49,23.75-3.87,1.05-7.84,1.53-11.85,1.54-12.61.01-25.21,0-37.82,0Zm.11-148.36c-9.09,0-18.18,0-27.28,0-6.37,0-12.38,1.51-17.81,4.86-11.13,6.89-17.08,16.93-17.2,30.06-.16,18.18-.04,36.37-.05,54.55,0,4.67.88,9.15,2.65,13.47,5.21,12.77,17.94,21.51,31.72,21.57,18.56.07,37.11.03,55.67,0,1.83,0,3.69-.19,5.5-.5,16.67-2.84,28.98-17.39,29-34.28.03-18.27.03-36.54-.02-54.81,0-2.27-.24-4.57-.68-6.8-3.25-16.36-17.63-28.11-34.3-28.12-9.07,0-18.14,0-27.21,0Z"/>
      <path class="cls-1" d="m35.15,86.03c0-9.18-.08-18.36.02-27.54.12-11.27,7.9-20.64,18.94-22.92,1.62-.33,3.31-.46,4.97-.46,18.03-.03,36.06-.03,54.09-.02,11.23,0,20.67,7.41,23.23,18.25.38,1.63.61,3.34.62,5.01.04,18.49.06,36.98.01,55.47-.03,10.94-8.29,20.73-19.05,22.7-1.61.3-3.27.44-4.91.45-17.94.03-35.88.01-53.83.02-7.55,0-13.81-2.82-18.66-8.59-3.73-4.44-5.46-9.63-5.45-15.43.02-8.98,0-17.96,0-26.95h0Zm83.3.03c.01-17.76-14.51-32.36-32.21-32.38-17.87-.02-32.47,14.43-32.49,32.15-.02,17.93,14.37,32.54,32.06,32.56,18.08.02,32.63-14.39,32.64-32.33Zm1.06-40.87c-4.12,0-7.44,3.32-7.46,7.44-.02,4.12,3.36,7.5,7.49,7.49,4.12,0,7.48-3.4,7.46-7.53-.02-4.1-3.37-7.41-7.5-7.41Z"/>
      <path class="cls-2" d="m65.06,86c.04-11.68,9.47-21.03,21.19-21,11.49.03,20.9,9.54,20.87,21.07-.04,11.65-9.49,21.04-21.13,20.99-11.58-.05-20.96-9.49-20.93-21.06Z"/>
    </g>
  </g>
</svg>