<?xml version="1.0" encoding="UTF-8"?>
<svg id="Layer_2" data-name="Layer 2" xmlns="http://www.w3.org/2000/svg" xmlns:xlink="http://www.w3.org/1999/xlink" viewBox="0 0 175.02 175.06">
  <defs>
    <style>
      .cls-1 {
        fill: url(#linear-gradient);
      }
    </style>
    <linearGradient id="linear-gradient" x1="0" y1="87.53" x2="175.02" y2="87.53" gradientUnits="userSpaceOnUse">
      <stop offset="0" stop-color="#ff4101"/>
      <stop offset=".99" stop-color="#ff7801"/>
    </linearGradient>
  </defs>
  <g id="Layer_1-2" data-name="Layer 1">
    <path class="cls-1" d="m87.52,175.05c-11.57,0-23.14-.02-34.71,0-8.4.02-16.39-1.78-23.81-5.7-15.37-8.13-24.83-20.75-28.21-37.85C.22,128.57,0,125.59,0,122.6c.01-23.85-.03-47.7.04-71.55.02-6.99,1.69-13.68,4.66-19.99C11.09,17.41,21.4,7.99,35.59,2.89,40.96.95,46.52,0,52.23,0c23.43,0,46.86,0,70.29,0,8.94,0,17.35,2.16,25.12,6.55,13.22,7.47,21.85,18.59,25.79,33.28,1.09,4.07,1.59,8.23,1.59,12.46-.02,23.72.01,47.43-.02,71.15-.01,7.8-1.87,15.22-5.42,22.14-7.52,14.66-19.31,24.06-35.31,28.1-4.01,1.01-8.1,1.38-12.23,1.38-11.5-.01-23.01,0-34.51,0Zm-1.48-87.36c0,8.78,0,17.56,0,26.35,0,2.6,1.74,4.37,4.29,4.37,16.37,0,32.74,0,49.11.01,2.03,0,4.01-.26,5.95-.84,5.65-1.71,9.92-5.1,12.67-10.36,1.44-2.76,1.98-5.73,2.14-8.8.04-.69-.17-1.39-.26-2.09-.63-5.09-2.85-9.37-6.76-12.67-5.1-4.3-10.97-5.67-17.48-4.19-.41.09-.61-.02-.72-.44-.28-1.04-.54-2.1-.89-3.12-2-5.83-5.39-10.7-10.13-14.64-3.83-3.18-8.17-5.42-13.01-6.6-1.88-.46-3.81-.84-5.73-.98-2.41-.17-4.84-.13-7.26.26-3.2.52-6.3,1.25-9.17,2.84-1.93,1.07-2.76,2.6-2.76,4.74.02,8.72,0,17.43,0,26.15Zm-3.03,9.24s-.08-.01-.12-.02c-.04-.75-.08-1.5-.13-2.25-.35-4.96-.69-9.92-1.08-14.87-.38-4.8-.83-9.6-1.25-14.4-.09-.98-.79-1.67-1.71-1.69-1.02-.02-1.74.6-1.83,1.62-.38,4.53-.76,9.07-1.09,13.6-.27,3.55-.45,7.1-.71,10.64-.32,4.23-.56,8.47-.06,12.7.6,5.07,1.25,10.13,1.89,15.2.11.83.68,1.24,1.66,1.26,1.02.03,1.65-.38,1.81-1.18.11-.54.2-1.09.28-1.63.44-3.11.92-6.21,1.31-9.32.4-3.22.7-6.46,1.04-9.68Zm-20.82.18c-.34-4.33-.63-8.52-1-12.7-.44-4.91-.94-9.81-1.42-14.72-.09-.97-.84-1.7-1.72-1.71-.87,0-1.63.71-1.73,1.69-.13,1.25-.23,2.51-.34,3.76-.37,4.16-.75,8.32-1.09,12.48-.19,2.27-.37,4.54-.45,6.81-.09,2.38-.2,4.78-.05,7.15.23,3.57.66,7.13,1.05,10.69.25,2.26.58,4.52.91,6.77.14.94.8,1.44,1.77,1.42.89-.02,1.5-.58,1.64-1.5.09-.63.2-1.27.29-1.9.43-3.24.9-6.48,1.28-9.73.34-2.87.59-5.76.87-8.5Zm10.29.07c-.23-2.8-.42-5.47-.67-8.13-.42-4.44-.87-8.89-1.33-13.33-.13-1.32-.25-2.64-.49-3.95-.25-1.35-1.82-1.87-2.76-.91-.34.35-.56.92-.62,1.41-.36,3.38-.68,6.77-.99,10.16-.27,3.04-.57,6.07-.74,9.12-.15,2.64-.29,5.3-.16,7.93.16,3.31.57,6.6.93,9.9.29,2.68.66,5.35,1.03,8.03.12.89.71,1.33,1.61,1.34.99.01,1.53-.38,1.73-1.29.07-.32.13-.65.17-.98.53-4.1,1.09-8.2,1.58-12.3.29-2.37.48-4.75.7-7Zm-20.34.18c-.09-1.51-.12-2.6-.23-3.67-.58-5.74-1.17-11.48-1.78-17.21-.11-1.05-.24-2.11-.43-3.15-.14-.75-.78-1.31-1.44-1.38-.73-.08-1.41.25-1.73.97-.2.45-.27.98-.33,1.48-.43,4.13-.88,8.27-1.25,12.4-.29,3.19-.58,6.39-.67,9.59-.06,2.2.15,4.42.36,6.61.39,4.03.86,8.04,1.31,12.07.09.83.2,1.67.39,2.48.2.85.93,1.26,1.89,1.2.77-.05,1.28-.56,1.41-1.41.07-.46.17-.91.23-1.37.54-4.01,1.09-8.02,1.59-12.03.29-2.32.48-4.66.67-6.57Zm-10.54-.17s-.08,0-.12,0c0-.46.07-.94-.01-1.39-.67-3.98-1.35-7.97-2.06-11.95-.16-.9-.81-1.39-1.6-1.4-.83,0-1.36.44-1.62,1.36-.06.21-.12.43-.16.64-.34,1.91-.67,3.83-1.03,5.74-.71,3.8-.87,7.62-.45,11.47.33,2.99.58,5.98.89,8.97.24,2.24.52,4.48.8,6.71.09.7.64,1.29,1.24,1.39.69.11,1.35-.18,1.64-.83.17-.37.25-.8.3-1.21.44-3.62.89-7.24,1.29-10.86.32-2.87.58-5.76.87-8.63Zm-10.16-.66c-.1-1.15-.17-2.14-.29-3.13-.21-1.67-.44-3.33-.71-4.99-.37-2.27-.76-4.53-1.18-6.79-.17-.92-.73-1.29-1.72-1.27-.9.02-1.31.37-1.47,1.37-.56,3.56-1.16,7.11-1.6,10.69-.23,1.83-.3,3.71-.18,5.54.22,3.46.62,6.91.98,10.36.25,2.37.55,4.74.84,7.11.09.74.6,1.24,1.33,1.37.62.11,1.34-.25,1.63-.89.14-.31.2-.67.25-1.02.36-2.78.73-5.57,1.05-8.36.39-3.38.74-6.76,1.09-10Zm-10,.47c-.13-1-.19-1.98-.39-2.92-.5-2.38-1.06-4.74-1.6-7.11-.19-.84-.73-1.37-1.39-1.38-.68-.01-1.3.53-1.47,1.38-.5,2.51-1.01,5.02-1.43,7.55-.2,1.19-.39,2.39-.19,3.64.5,3.21.86,6.43,1.3,9.65.13.98.31,1.96.54,2.93.13.56.5.97,1.15,1.03.67.06,1.02-.33,1.25-.88.11-.26.19-.54.24-.82.46-2.63.94-5.26,1.35-7.9.27-1.72.44-3.46.65-5.16Z"/>
  </g>
</svg>